<svg xmlns="http://www.w3.org/2000/svg" xmlns:xlink="http://www.w3.org/1999/xlink" width="130" height="50" viewBox="0 0 130 50">
  <defs>
    <clipPath id="clip-path">
      <rect id="Rectangle_6671" data-name="Rectangle 6671" width="130" height="50" transform="translate(3650 -2558)" fill="none" stroke="#707070" stroke-width="1"/>
    </clipPath>
    <clipPath id="clip-path-2">
      <rect id="Rectangle_6670" data-name="Rectangle 6670" width="117.648" height="35.894" fill="#b5c1d5"/>
    </clipPath>
  </defs>
  <g id="iheartmedia_logo" transform="translate(-3650 2558)" clip-path="url(#clip-path)">
    <g id="Group_8964" data-name="Group 8964" transform="translate(3656 -2551)">
      <g id="Group_8963" data-name="Group 8963" clip-path="url(#clip-path-2)">
        <path id="Path_17565" data-name="Path 17565" d="M520.223,217.667c-.92,1.342-1.845,2.682-2.76,4.028-.627.922-1.232,1.859-1.866,2.776-.488.705-1.138.673-1.623-.051-1.469-2.194-2.955-4.376-4.436-6.561-.06-.088-.137-.163-.262-.31v.562q0,5.221,0,10.442c0,.607-.218.909-.688.957-.573.059-.814-.136-.994-.756a1.632,1.632,0,0,1-.045-.47q0-6.395,0-12.789a1.115,1.115,0,0,1,.715-1.2,1.15,1.15,0,0,1,1.282.578q2.463,3.684,4.922,7.371c.38.57.373.57.766-.024q2.448-3.694,4.9-7.385a1.111,1.111,0,0,1,1.476-.448.889.889,0,0,1,.445.789q-.008,6.754-.005,13.508a.761.761,0,0,1-.774.824.889.889,0,0,1-.95-.783c-.012-.127,0-.255,0-.383q0-5.316,0-10.633l-.1-.045" transform="translate(-458.749 -193.654)" fill="#b5c1d5"/>
        <path id="Path_17566" data-name="Path 17566" d="M702.268,222.83c0-2.124.014-4.249-.007-6.373a1.023,1.023,0,0,1,1.139-1.165c3.025.034,6.05.017,9.075.012a.753.753,0,0,1,.789.487.81.81,0,0,1-.231.907.626.626,0,0,1-.53.142c-2.657,0-5.314.012-7.971-.011-.451,0-.552.129-.544.556.026,1.405.021,2.811,0,4.216,0,.343.1.423.432.422,2.369-.013,4.738-.008,7.106-.007a.768.768,0,1,1,0,1.531c-2.353,0-4.706.01-7.058-.006-.369,0-.489.083-.482.47q.036,2.156,0,4.312c-.007.391.089.509.5.506,2.689-.019,5.378-.01,8.067-.01.548,0,.862.284.859.772a.74.74,0,0,1-.838.759q-4.682,0-9.363,0c-.614,0-.937-.364-.938-1.053q-.005-3.234,0-6.468" transform="translate(-634.742 -194.592)" fill="#b5c1d5"/>
        <path id="Path_17567" data-name="Path 17567" d="M1017.985,222.017q0-3.329,0-6.657c0-.582.277-.9.782-.913a.871.871,0,0,1,.943.9q.006,6.729,0,13.458a.853.853,0,0,1-.9.88c-.554-.009-.825-.287-.825-.868q0-3.4,0-6.8" transform="translate(-920.11 -193.829)" fill="#b5c1d5"/>
        <path id="Path_17568" data-name="Path 17568" d="M866.281,221.208a6.9,6.9,0,0,0-2.622-4.3,7.838,7.838,0,0,0-4.527-1.671c-1.676-.082-3.359-.019-5.039-.018a.82.82,0,0,0-.927.919q0,3.3,0,6.609,0,3.329,0,6.657c0,.516.246.86.689.852a54.257,54.257,0,0,0,5.933-.095,7.444,7.444,0,0,0,6.493-8.956m-3.416,5.836a5.748,5.748,0,0,1-3.9,1.589c-1.2.026-2.4-.008-3.6.013-.364.006-.49-.075-.485-.467.022-1.82.01-3.64.01-5.461,0-1.8.008-3.609-.007-5.413,0-.338.057-.473.438-.465,1.3.026,2.594-.034,3.888.022a5.512,5.512,0,0,1,3.247,1.266,6.108,6.108,0,0,1,.4,8.915" transform="translate(-771.137 -194.507)" fill="#b5c1d5"/>
        <path id="Path_17569" data-name="Path 17569" d="M1084.721,225.954c-.61-1.311-1.223-2.622-1.827-3.936q-1.781-3.877-3.551-7.76a1.216,1.216,0,0,0-1.234-.841,1.3,1.3,0,0,0-1.136.938c-1.085,2.372-2.156,4.75-3.241,7.121-.922,2.016-1.857,4.026-2.784,6.04a.907.907,0,0,0,.315,1.2.962.962,0,0,0,1.215-.53c.444-1.005.894-2.008,1.322-3.02a.621.621,0,0,1,.666-.452c2.447.019,4.894.024,7.341,0a.691.691,0,0,1,.729.511q.63,1.422,1.281,2.834c.152.329.315.645.753.7a.893.893,0,0,0,.967-.57v-.5c-.272-.578-.547-1.154-.817-1.733m-6.081-2.856h-3.5c-.211,0-.446.046-.279-.32,1.046-2.3,2.079-4.607,3.118-6.911a3.643,3.643,0,0,1,.2-.322l3.409,7.553h-2.948" transform="translate(-967.89 -192.896)" fill="#b5c1d5"/>
        <path id="Path_17570" data-name="Path 17570" d="M577.926,16.488h4.365v5.948H588v-5.99c1.407,0,2.758-.018,4.106.026.141,0,.38.374.386.579.036,1.233.018,2.468.017,3.7q0,5.517-.006,11.034c0,.168-.016.337-.028.576h-4.464V26.481h-5.7v5.9h-4.388Z" transform="translate(-522.361 -14.862)" fill="#b5c1d5"/>
        <path id="Path_17571" data-name="Path 17571" d="M1111.23,25.993l1.425-.066V22.919H1117v3.035h2.9V29.42h-2.851c0,1.557-.038,3.045.02,4.53a.891.891,0,0,0,1.06.861c.547-.047,1.089-.15,1.706-.238,0,.986.017,2-.018,3.006-.005.155-.223.37-.392.441a6.423,6.423,0,0,1-4.115.344,3.362,3.362,0,0,1-2.635-3.526c-.012-1.764,0-3.528,0-5.36l-1.444-.075Z" transform="translate(-1004.391 -20.715)" fill="#b5c1d5"/>
        <path id="Path_17572" data-name="Path 17572" d="M1017.077,64.607h-4.283V52.32c1.318,0,2.62-.013,3.921.022.126,0,.334.3.349.472.047.517.017,1.041.017,1.778.336-.491.546-.795.753-1.1a3.555,3.555,0,0,1,2.8-1.414c.12-.013.388.27.391.42.031,1.35.018,2.7.018,3.948a11.536,11.536,0,0,0-2.446.775c-1.321.775-1.479,2.178-1.517,3.554-.034,1.252-.007,2.506-.007,3.833" transform="translate(-915.419 -47.07)" fill="#b5c1d5"/>
        <path id="Path_17573" data-name="Path 17573" d="M513.068,75.024h-4.656c0-.455,0-.883,0-1.311,0-2.541-.014-5.081.01-7.622a2.352,2.352,0,0,1,3.073-2.377,2.175,2.175,0,0,1,1.627,1.995c.01,2.976,0,5.952-.008,8.928a3.576,3.576,0,0,1-.046.387" transform="translate(-459.527 -57.496)" fill="#b5c1d5"/>
        <path id="Path_17574" data-name="Path 17574" d="M511.79,9.23a2.186,2.186,0,0,1-2.187-2.2,2.331,2.331,0,0,1,2.338-2.407,2.377,2.377,0,0,1,2.264,2.288A2.308,2.308,0,0,1,511.79,9.23" transform="translate(-460.607 -4.174)" fill="#b5c1d5"/>
        <path id="Path_17575" data-name="Path 17575" d="M48.473,12.218A12.646,12.646,0,0,0,40.347,1.082a12.481,12.481,0,0,0-12.6,1.434,38.317,38.317,0,0,0-3.607,3.277c-.065-.083-.128-.168-.193-.251A13.145,13.145,0,0,0,11.707.158,13.116,13.116,0,0,0,.476,9.719a11.391,11.391,0,0,0,.988,8.89,25.2,25.2,0,0,0,4.919,5.944q5.642,5.332,11.277,10.671a1.289,1.289,0,0,0,1.426.436c.562-.217.54-.739.54-1.231,0-2.687.006-5.373,0-8.06a4.616,4.616,0,0,1,5.15-4.928,4.5,4.5,0,0,1,4.058,4.2c.01,2.807,0,5.615.012,8.423a3.555,3.555,0,0,0,.074.788c.213.923.955,1.193,1.663.573.963-.844,1.89-1.729,2.824-2.605,1.41-1.324,2.832-2.636,4.215-3.987,2.542-2.482,5.168-4.891,7.556-7.515a11.487,11.487,0,0,0,3.3-9.1M12.3,23.313c-.388.457-.9.466-1.456-.017A16.674,16.674,0,0,1,5.569,15.9,20.959,20.959,0,0,1,5,13.075,10.933,10.933,0,0,1,8.988,4.594a4.04,4.04,0,0,1,.483-.319.9.9,0,0,1,1.338.227.836.836,0,0,1-.3,1.254A7.97,7.97,0,0,0,7.876,8.79a8.3,8.3,0,0,0,.538,8.855A36.641,36.641,0,0,0,12,21.88c.5.548.671.99.295,1.433m5.8-3.287a.868.868,0,0,1-1.27.264,8.535,8.535,0,0,1-4.395-6.934A7.436,7.436,0,0,1,15.69,6.918a3.128,3.128,0,0,1,.368-.231c.718-.377,1.249-.318,1.523.164.289.509.1.989-.58,1.405-3.347,2.041-3.544,6.216-1,8.987A13.32,13.32,0,0,0,17.785,18.7a.932.932,0,0,1,.313,1.321m6.074-14.19c.015.011.008.008,0,0m.081,11.759c-2.23.227-4.027-2.113-3.967-3.936a3.99,3.99,0,0,1,7.979.055,3.91,3.91,0,0,1-4.012,3.881m7.611,2.6c-.659.415-1.162.316-1.458-.18s-.168-.942.5-1.373a6.779,6.779,0,0,0,3.286-4.8,5.351,5.351,0,0,0-2.224-5.3,4.622,4.622,0,0,0-.607-.395A.865.865,0,0,1,30.9,6.939a.9.9,0,0,1,1.339-.382,7.361,7.361,0,0,1,3.906,6.636,8.666,8.666,0,0,1-4.279,7m8.363.52c-.769.922-1.658,1.747-2.51,2.6a.982.982,0,0,1-1.421.083,1.022,1.022,0,0,1,.159-1.419c1.031-1.113,2.141-2.167,3.065-3.363a9.267,9.267,0,0,0,2.143-6.023,8.484,8.484,0,0,0-3.341-6.622c-.094-.075-.2-.134-.3-.209a.88.88,0,0,1-.285-1.216A.825.825,0,0,1,39,4.245a11.884,11.884,0,0,1,2.035,1.82,10.464,10.464,0,0,1,2.5,6.694,12.735,12.735,0,0,1-3.3,7.953" transform="translate(0 0)" fill="#b5c1d5"/>
        <path id="Path_17576" data-name="Path 17576" d="M888.848,57.8a6.12,6.12,0,0,0-2.422-5.033,7.094,7.094,0,0,0-5.163-1.278,6.007,6.007,0,0,0-4.423,2.5l2.34,1.931a4.18,4.18,0,0,1,3.007-1.2,2.263,2.263,0,0,1,2.32,2.023,20.535,20.535,0,0,0-2.686.023,14.207,14.207,0,0,0-3.647.78,3.51,3.51,0,0,0-.929,5.534,4.967,4.967,0,0,0,4.53,1.18,15.873,15.873,0,0,0,2.933-1.053l.043.843c1.192,0,2.328-.024,3.463.011.525.016.662-.184.656-.674-.021-1.863.035-3.729-.021-5.591m-6.884,3.75a1.442,1.442,0,0,1-1.43-1.267c-.018-.666.491-1.146,1.364-1.185.911-.041,1.826-.009,2.8-.009-.252,1.828-1.108,2.571-2.731,2.461" transform="translate(-792.035 -46.485)" fill="#b5c1d5"/>
        <path id="Path_17577" data-name="Path 17577" d="M754.732,57.009a5.912,5.912,0,0,0-2.829-4.653,6.575,6.575,0,0,0-7.783.953,7.085,7.085,0,0,0-.889,8.152,6.793,6.793,0,0,0,6.742,2.9,6.393,6.393,0,0,0,4.353-2.485l-2.387-1.95a3.606,3.606,0,0,1-3.949.991,2.191,2.191,0,0,1-1.405-1.775h8.163a16.985,16.985,0,0,0-.014-2.134m-4.084-.159h-4.074c-.293-.945.99-2.158,1.976-2.154a2.039,2.039,0,0,1,2.1,2.154" transform="translate(-670.956 -46.553)" fill="#b5c1d5"/>
      </g>
    </g>
  </g>
</svg>
